# xmcd
#
# Track frame offsets: 
#        150
#        13542
#        25925
#        39245
#        52132
#        66465
#        79557
#        90522
#        102292
#        113982
#        125030
#        138027
#        150620
#        161122
#        172485
#        185862
#        204330
#        218572
#        229515
#        241642
#
# Disc length: 3391 seconds
#
# Revision: 9
# Processed by: cddbd v1.5.2PL0 Copyright (c) Steve Scherf et al.
# Submitted via: ExactAudioCopy v0.95b4
#
DISCID=0e0d3d14
DTITLE=Howlin' Wolf - His Best (Chess 50th Anniversary Collection)
DYEAR=1997
DGENRE=Blues
TTITLE0=Moanin' At Midnight
TTITLE1=How Many More Years
TTITLE2=Evil
TTITLE3=Forty-Four
TTITLE4=Smokestack Lightnin'
TTITLE5=I Asked For Water
TTITLE6=Who's Been Talkin'
TTITLE7=Sitting On Top Of The World
TTITLE8=Howlin' For My Darling
TTITLE9=Wang Dang Doodle
TTITLE10=Back Door Man
TTITLE11=Spoonful
TTITLE12=Shake For Me
TTITLE13=The Red Rooster
TTITLE14=I Ain't Superstitious
TTITLE15=Goin' Down Slow
TTITLE16=Three Hundred Pounds Of Joy
TTITLE17=Hidden Charms
TTITLE18=Built For Comfort
TTITLE19=Killing Floor
EXTD=
EXTT0=
EXTT1=
EXTT2=
EXTT3=
EXTT4=
EXTT5=
EXTT6=
EXTT7=
EXTT8=
EXTT9=
EXTT10=
EXTT11=
EXTT12=
EXTT13=
EXTT14=
EXTT15=
EXTT16=
EXTT17=
EXTT18=
EXTT19=
PLAYORDER=
